<svg height="512" viewBox="0 0 58 59" width="512" xmlns="http://www.w3.org/2000/svg"><g id="Page-1" fill="none" fill-rule="evenodd"><g id="038---Market-Stall" fill="rgb(0,0,0)" fill-rule="nonzero"><path id="Shape" d="m11 12h12c0 2.209139-1.790861 4-4 4h-4c-2.209139 0-4-1.790861-4-4z"/><path id="Shape" d="m23 12h12c0 2.209139-1.790861 4-4 4h-4c-2.209139 0-4-1.790861-4-4z"/><path id="Shape" d="m35 12h12c0 2.209139-1.790861 4-4 4h-4c-2.209139 0-4-1.790861-4-4z"/><path id="Shape" d="m58 12c-.0018942 1.0606427-.4223608 2.0776689-1.17 2.83-.5084818.500833-1.1395019.8594456-1.83 1.04-.3257307.0893041-.6622628.1330533-1 .13h-3c-2.209139 0-4-1.790861-4-4h7c.5522847 0 1-.4477153 1-1s-.4477153-1-1-1h-6.32l-1.75-4.37c-.1321883-.33225702-.4315923-.56875356-.7854294-.62040367s-.7083512.0893931-.93.37000001c-.2216489.28060691-.2767589.65814666-.1445706.99040366l1.45 3.63h-9.52v-2c0-.55228475-.4477153-1-1-1s-1 .44771525-1 1v2h-10v-2c0-.55228475-.4477153-1-1-1s-1 .44771525-1 1v2h-9.52l1.45-3.63c.2043454-.51362482-.0463752-1.09565464-.56-1.3s-1.0956546.04637518-1.3.56l-1.75 4.37h-6.32c-.55228475 0-1 .4477153-1 1s.44771525 1 1 1h7c0 2.209139-1.790861 4-4 4h-3c-.33773721.0030533-.67426925-.0406959-1-.13-.69049806-.1805544-1.32151823-.539167-1.83-1.04-.74763915-.7523311-1.16810582-1.7693573-1.17-2.83.00173641-.6521511.18903129-1.290341.54-1.84l4.99-7.84c.91170016-1.44510926 2.50133481-2.32110746 4.21-2.32h38.52c1.7086652-.00110746 3.2982998.87489074 4.21 2.32l4.99 7.84c.3509687.549659.5382636 1.1878489.54 1.84z"/><rect id="Rectangle-path" height="4" rx="2" width="58" y="38"/><rect id="Rectangle-path" height="9" rx=".5" width="54" x="2" y="44"/><path id="Shape" d="m7 18v17.5c0 .2761424-.22385763.5-.5.5h-3c-.27614237 0-.5-.2238576-.5-.5v-17.58c.33074126.0526686.66509192.0794167 1 .08z"/><path id="Shape" d="m55 17.92v17.58c0 .2761424-.2238576.5-.5.5h-3c-.2761424 0-.5-.2238576-.5-.5v-17.5h3c.334941.0002364.6693565-.0265169 1-.08z"/><path id="Shape" d="m12 30h18c.5522847 0 1 .4477153 1 1v4.5c0 .2761424-.2238576.5-.5.5h-19c-.2761424 0-.5-.2238576-.5-.5v-4.5c0-.5522847.4477153-1 1-1z"/><rect id="Rectangle-path" height="4" rx="1" width="10" x="11" y="20"/><rect id="Rectangle-path" height="4" rx=".5" width="4" x="14" y="25"/><path id="Shape" d="m40 28 .945 7.562c.0314444.2516881.2463628.4399566.5.438h3.118c.2536372.0019566.4685556-.1863119.5-.438l.937-7.562z"/><rect id="Rectangle-path" height="4" rx="2" width="58" y="55"/></g></g></svg>